<svg width="139" height="33" viewBox="0 0 139 33" fill="none" xmlns="http://www.w3.org/2000/svg">
<path d="M15.8027 15H12.999V7.45898C12.999 6.64453 13.0342 5.74512 13.1045 4.76074H13.0342C12.8877 5.53418 12.7559 6.09082 12.6387 6.43066L9.68555 15H7.36523L4.35938 6.51855C4.27734 6.29004 4.14551 5.7041 3.96387 4.76074H3.88477C3.96094 6.00293 3.99902 7.09277 3.99902 8.03027V15H1.44141V2.39648H5.59863L8.17383 9.86719C8.37891 10.4648 8.52832 11.0654 8.62207 11.6689H8.6748C8.83301 10.9717 9 10.3652 9.17578 9.84961L11.751 2.39648H15.8027V15ZM19.7018 4.57617C19.233 4.57617 18.8492 4.43848 18.5504 4.16309C18.2516 3.88184 18.1021 3.53906 18.1021 3.13477C18.1021 2.71875 18.2516 2.37891 18.5504 2.11523C18.8492 1.85156 19.233 1.71973 19.7018 1.71973C20.1764 1.71973 20.5602 1.85156 20.8531 2.11523C21.152 2.37891 21.3014 2.71875 21.3014 3.13477C21.3014 3.55664 21.152 3.90234 20.8531 4.17188C20.5602 4.44141 20.1764 4.57617 19.7018 4.57617ZM21.0729 15H18.2955V6H21.0729V15ZM30.1311 14.6748C29.5041 15.0381 28.5988 15.2197 27.4152 15.2197C26.0324 15.2197 24.9133 14.8008 24.0578 13.9629C23.2023 13.125 22.7746 12.0439 22.7746 10.7197C22.7746 9.19043 23.2316 7.98633 24.1457 7.10742C25.0656 6.22266 26.2932 5.78027 27.8283 5.78027C28.8889 5.78027 29.6564 5.9209 30.1311 6.20215V8.55762C29.551 8.12402 28.9035 7.90723 28.1887 7.90723C27.3918 7.90723 26.759 8.1416 26.2902 8.61035C25.8273 9.07324 25.5959 9.71484 25.5959 10.5352C25.5959 11.332 25.8186 11.959 26.2639 12.416C26.7092 12.8672 27.3215 13.0928 28.1008 13.0928C28.7922 13.0928 29.4689 12.876 30.1311 12.4424V14.6748ZM37.7303 8.50488C37.3963 8.32324 37.0066 8.23242 36.5613 8.23242C35.9578 8.23242 35.4861 8.45508 35.1463 8.90039C34.8064 9.33984 34.6365 9.94043 34.6365 10.7021V15H31.8592V6H34.6365V7.66992H34.6717C35.1111 6.45117 35.9021 5.8418 37.0447 5.8418C37.3377 5.8418 37.5662 5.87695 37.7303 5.94727V8.50488ZM43.1498 15.2197C41.6498 15.2197 40.4691 14.8008 39.6078 13.9629C38.7523 13.1191 38.3246 11.9766 38.3246 10.5352C38.3246 9.04688 38.7699 7.88379 39.6605 7.0459C40.5512 6.20215 41.7553 5.78027 43.2729 5.78027C44.767 5.78027 45.9389 6.20215 46.7885 7.0459C47.6381 7.88379 48.0629 8.99414 48.0629 10.377C48.0629 11.8711 47.6234 13.0518 46.7445 13.9189C45.8715 14.7861 44.6732 15.2197 43.1498 15.2197ZM43.2201 7.90723C42.5639 7.90723 42.0541 8.13281 41.6908 8.58398C41.3275 9.03516 41.1459 9.67383 41.1459 10.5C41.1459 12.2285 41.8432 13.0928 43.2377 13.0928C44.5678 13.0928 45.2328 12.2051 45.2328 10.4297C45.2328 8.74805 44.5619 7.90723 43.2201 7.90723ZM49.1758 14.7627V12.5127C49.6328 12.7881 50.0869 12.9932 50.5381 13.1279C50.9951 13.2627 51.4258 13.3301 51.8301 13.3301C52.3223 13.3301 52.709 13.2627 52.9902 13.1279C53.2773 12.9932 53.4209 12.7881 53.4209 12.5127C53.4209 12.3369 53.3564 12.1904 53.2275 12.0732C53.0986 11.9561 52.9316 11.8535 52.7266 11.7656C52.5273 11.6777 52.3076 11.5986 52.0674 11.5283C51.8271 11.458 51.5957 11.3789 51.373 11.291C51.0156 11.1562 50.6992 11.0127 50.4238 10.8604C50.1543 10.7021 49.9258 10.5205 49.7383 10.3154C49.5566 10.1104 49.416 9.87305 49.3164 9.60352C49.2227 9.33398 49.1758 9.01465 49.1758 8.64551C49.1758 8.1416 49.2842 7.70801 49.501 7.34473C49.7236 6.98145 50.0166 6.68555 50.3799 6.45703C50.749 6.22266 51.168 6.05273 51.6367 5.94727C52.1113 5.83594 52.6035 5.78027 53.1133 5.78027C53.5117 5.78027 53.916 5.8125 54.3262 5.87695C54.7363 5.93555 55.1406 6.02344 55.5391 6.14062V8.28516C55.1875 8.08008 54.8096 7.92773 54.4053 7.82812C54.0068 7.72266 53.6143 7.66992 53.2275 7.66992C53.0459 7.66992 52.873 7.6875 52.709 7.72266C52.5508 7.75195 52.4102 7.79883 52.2871 7.86328C52.1641 7.92188 52.0674 8.00098 51.9971 8.10059C51.9268 8.19434 51.8916 8.30273 51.8916 8.42578C51.8916 8.58984 51.9443 8.73047 52.0498 8.84766C52.1553 8.96484 52.293 9.06738 52.4629 9.15527C52.6328 9.2373 52.8203 9.31348 53.0254 9.38379C53.2363 9.44824 53.4443 9.51562 53.6494 9.58594C54.0186 9.71484 54.3525 9.85547 54.6514 10.0078C54.9502 10.1602 55.2051 10.3389 55.416 10.5439C55.6328 10.749 55.7969 10.9893 55.9082 11.2646C56.0254 11.54 56.084 11.8682 56.084 12.249C56.084 12.7822 55.9668 13.2393 55.7324 13.6201C55.5039 13.9951 55.1963 14.3027 54.8096 14.543C54.4287 14.7773 53.9863 14.9473 53.4824 15.0527C52.9844 15.1641 52.4658 15.2197 51.9268 15.2197C50.9365 15.2197 50.0195 15.0674 49.1758 14.7627ZM61.8814 15.2197C60.3814 15.2197 59.2008 14.8008 58.3395 13.9629C57.484 13.1191 57.0563 11.9766 57.0563 10.5352C57.0563 9.04688 57.5016 7.88379 58.3922 7.0459C59.2828 6.20215 60.4869 5.78027 62.0045 5.78027C63.4986 5.78027 64.6705 6.20215 65.5201 7.0459C66.3697 7.88379 66.7945 8.99414 66.7945 10.377C66.7945 11.8711 66.3551 13.0518 65.4762 13.9189C64.6031 14.7861 63.4049 15.2197 61.8814 15.2197ZM61.9518 7.90723C61.2955 7.90723 60.7857 8.13281 60.4225 8.58398C60.0592 9.03516 59.8775 9.67383 59.8775 10.5C59.8775 12.2285 60.5748 13.0928 61.9693 13.0928C63.2994 13.0928 63.9645 12.2051 63.9645 10.4297C63.9645 8.74805 63.2936 7.90723 61.9518 7.90723ZM74.0861 3.80273C73.7287 3.66211 73.3859 3.5918 73.0578 3.5918C72.1672 3.5918 71.7219 4.0752 71.7219 5.04199V6H73.7785V8.04785H71.7219V15H68.9533V8.04785H67.4416V6H68.9533V4.88379C68.9533 3.8584 69.2873 3.03223 69.9553 2.40527C70.6232 1.77832 71.5314 1.46484 72.6799 1.46484C73.2424 1.46484 73.7111 1.52344 74.0861 1.64062V3.80273ZM80.8152 14.8945C80.4051 15.1113 79.7869 15.2197 78.9607 15.2197C77.0037 15.2197 76.0252 14.2031 76.0252 12.1699V8.04785H74.5662V6H76.0252V4.05762L78.7937 3.2666V6H80.8152V8.04785H78.7937V11.6865C78.7937 12.624 79.1658 13.0928 79.91 13.0928C80.2029 13.0928 80.5047 13.0078 80.8152 12.8379V14.8945ZM96.2861 4.70801H92.6914V15H89.8438V4.70801H86.2666V2.39648H96.2861V4.70801ZM104.079 11.291H98.2076C98.3014 12.5977 99.1246 13.251 100.677 13.251C101.668 13.251 102.538 13.0166 103.288 12.5479V14.5518C102.456 14.9971 101.375 15.2197 100.045 15.2197C98.5914 15.2197 97.4635 14.8184 96.6607 14.0156C95.858 13.207 95.4566 12.082 95.4566 10.6406C95.4566 9.14648 95.8902 7.96289 96.7574 7.08984C97.6246 6.2168 98.691 5.78027 99.9566 5.78027C101.269 5.78027 102.283 6.16992 102.998 6.94922C103.718 7.72852 104.079 8.78613 104.079 10.1221V11.291ZM101.504 9.58594C101.504 8.29688 100.982 7.65234 99.9391 7.65234C99.4938 7.65234 99.107 7.83691 98.7789 8.20605C98.4566 8.5752 98.2604 9.03516 98.19 9.58594H101.504ZM113.119 15H110.491V13.708H110.456C109.853 14.7158 108.959 15.2197 107.776 15.2197C106.903 15.2197 106.214 14.9736 105.71 14.4814C105.212 13.9834 104.963 13.3213 104.963 12.4951C104.963 10.749 105.997 9.74121 108.066 9.47168L110.509 9.14648C110.509 8.16211 109.976 7.66992 108.909 7.66992C107.837 7.66992 106.818 7.98926 105.851 8.62793V6.53613C106.238 6.33691 106.765 6.16113 107.433 6.00879C108.107 5.85645 108.719 5.78027 109.27 5.78027C111.836 5.78027 113.119 7.06055 113.119 9.62109V15ZM110.509 11.3438V10.7373L108.874 10.9482C107.972 11.0654 107.521 11.4727 107.521 12.1699C107.521 12.4863 107.629 12.7471 107.846 12.9521C108.069 13.1514 108.367 13.251 108.742 13.251C109.264 13.251 109.689 13.0723 110.017 12.7148C110.345 12.3516 110.509 11.8945 110.509 11.3438ZM129.508 15H126.739V9.86719C126.739 8.56055 126.259 7.90723 125.298 7.90723C124.841 7.90723 124.469 8.10352 124.181 8.49609C123.894 8.88867 123.751 9.37793 123.751 9.96387V15H120.973V9.81445C120.973 8.54297 120.502 7.90723 119.558 7.90723C119.084 7.90723 118.703 8.09473 118.416 8.46973C118.135 8.84473 117.994 9.35449 117.994 9.99902V15H115.217V6H117.994V7.40625H118.029C118.316 6.92578 118.718 6.53613 119.233 6.2373C119.755 5.93262 120.323 5.78027 120.938 5.78027C122.21 5.78027 123.08 6.33984 123.549 7.45898C124.234 6.33984 125.242 5.78027 126.572 5.78027C128.529 5.78027 129.508 6.9873 129.508 9.40137V15ZM131.016 14.7627V12.5127C131.473 12.7881 131.927 12.9932 132.378 13.1279C132.835 13.2627 133.266 13.3301 133.67 13.3301C134.163 13.3301 134.549 13.2627 134.83 13.1279C135.118 12.9932 135.261 12.7881 135.261 12.5127C135.261 12.3369 135.197 12.1904 135.068 12.0732C134.939 11.9561 134.772 11.8535 134.567 11.7656C134.368 11.6777 134.148 11.5986 133.908 11.5283C133.667 11.458 133.436 11.3789 133.213 11.291C132.856 11.1562 132.539 11.0127 132.264 10.8604C131.995 10.7021 131.766 10.5205 131.579 10.3154C131.397 10.1104 131.256 9.87305 131.157 9.60352C131.063 9.33398 131.016 9.01465 131.016 8.64551C131.016 8.1416 131.124 7.70801 131.341 7.34473C131.564 6.98145 131.857 6.68555 132.22 6.45703C132.589 6.22266 133.008 6.05273 133.477 5.94727C133.952 5.83594 134.444 5.78027 134.954 5.78027C135.352 5.78027 135.756 5.8125 136.166 5.87695C136.577 5.93555 136.981 6.02344 137.379 6.14062V8.28516C137.028 8.08008 136.65 7.92773 136.246 7.82812C135.847 7.72266 135.454 7.66992 135.068 7.66992C134.886 7.66992 134.713 7.6875 134.549 7.72266C134.391 7.75195 134.25 7.79883 134.127 7.86328C134.004 7.92188 133.908 8.00098 133.837 8.10059C133.767 8.19434 133.732 8.30273 133.732 8.42578C133.732 8.58984 133.785 8.73047 133.89 8.84766C133.996 8.96484 134.133 9.06738 134.303 9.15527C134.473 9.2373 134.661 9.31348 134.866 9.38379C135.077 9.44824 135.285 9.51562 135.49 9.58594C135.859 9.71484 136.193 9.85547 136.492 10.0078C136.79 10.1602 137.045 10.3389 137.256 10.5439C137.473 10.749 137.637 10.9893 137.748 11.2646C137.866 11.54 137.924 11.8682 137.924 12.249C137.924 12.7822 137.807 13.2393 137.573 13.6201C137.344 13.9951 137.037 14.3027 136.65 14.543C136.269 14.7773 135.827 14.9473 135.323 15.0527C134.825 15.1641 134.306 15.2197 133.767 15.2197C132.777 15.2197 131.86 15.0674 131.016 14.7627Z" fill="#555AAC"/>
<path d="M1.10156 30V21.5977H3.42188C6.38281 21.5977 7.86328 22.9629 7.86328 25.6934C7.86328 26.9902 7.45117 28.0332 6.62695 28.8223C5.80664 29.6074 4.70703 30 3.32812 30H1.10156ZM2.08594 22.4883V29.1094H3.33984C4.44141 29.1094 5.29883 28.8145 5.91211 28.2246C6.52539 27.6348 6.83203 26.7988 6.83203 25.7168C6.83203 23.5645 5.6875 22.4883 3.39844 22.4883H2.08594ZM9.77891 22.4766C9.60703 22.4766 9.46055 22.418 9.33945 22.3008C9.21836 22.1836 9.15781 22.0352 9.15781 21.8555C9.15781 21.6758 9.21836 21.5273 9.33945 21.4102C9.46055 21.2891 9.60703 21.2285 9.77891 21.2285C9.95469 21.2285 10.1031 21.2891 10.2242 21.4102C10.3492 21.5273 10.4117 21.6758 10.4117 21.8555C10.4117 22.0273 10.3492 22.1738 10.2242 22.2949C10.1031 22.416 9.95469 22.4766 9.77891 22.4766ZM10.2477 30H9.28672V24H10.2477V30ZM15.2219 24.9727C15.0539 24.8438 14.8117 24.7793 14.4953 24.7793C14.0852 24.7793 13.7414 24.9727 13.4641 25.3594C13.1906 25.7461 13.0539 26.2734 13.0539 26.9414V30H12.093V24H13.0539V25.2363H13.0773C13.2141 24.8145 13.423 24.4863 13.7043 24.252C13.9855 24.0137 14.3 23.8945 14.6477 23.8945C14.8977 23.8945 15.0891 23.9219 15.2219 23.9766V24.9727ZM20.823 27.2402H16.5867C16.6023 27.9082 16.782 28.4238 17.1258 28.7871C17.4695 29.1504 17.9422 29.332 18.5437 29.332C19.2195 29.332 19.8406 29.1094 20.407 28.6641V29.5664C19.8797 29.9492 19.1824 30.1406 18.3152 30.1406C17.4676 30.1406 16.8016 29.8691 16.3172 29.3262C15.8328 28.7793 15.5906 28.0117 15.5906 27.0234C15.5906 26.0898 15.8543 25.3301 16.3816 24.7441C16.9129 24.1543 17.5711 23.8594 18.3562 23.8594C19.1414 23.8594 19.7488 24.1133 20.1785 24.6211C20.6082 25.1289 20.823 25.834 20.823 26.7363V27.2402ZM19.8387 26.4258C19.8348 25.8711 19.7 25.4395 19.4344 25.1309C19.1727 24.8223 18.8074 24.668 18.3387 24.668C17.8855 24.668 17.5008 24.8301 17.1844 25.1543C16.868 25.4785 16.6727 25.9023 16.5984 26.4258H19.8387ZM26.2719 29.7246C25.8109 30.002 25.2641 30.1406 24.6313 30.1406C23.7758 30.1406 23.0844 29.8633 22.557 29.3086C22.0336 28.75 21.7719 28.0273 21.7719 27.1406C21.7719 26.1523 22.0551 25.3594 22.6215 24.7617C23.1879 24.1602 23.9438 23.8594 24.8891 23.8594C25.4164 23.8594 25.8813 23.957 26.2836 24.1523V25.1367C25.8383 24.8242 25.3617 24.668 24.8539 24.668C24.2406 24.668 23.7367 24.8887 23.3422 25.3301C22.9516 25.7676 22.7563 26.3438 22.7563 27.0586C22.7563 27.7617 22.9398 28.3164 23.307 28.7227C23.6781 29.1289 24.1742 29.332 24.7953 29.332C25.3188 29.332 25.8109 29.1582 26.2719 28.8105V29.7246ZM30.4082 29.9414C30.1816 30.0664 29.8828 30.1289 29.5117 30.1289C28.4609 30.1289 27.9355 29.543 27.9355 28.3711V24.8203H26.9043V24H27.9355V22.5352L28.8965 22.2246V24H30.4082V24.8203H28.8965V28.2012C28.8965 28.6035 28.9648 28.8906 29.1016 29.0625C29.2383 29.2344 29.4648 29.3203 29.7812 29.3203C30.0234 29.3203 30.2324 29.2539 30.4082 29.1211V29.9414ZM40.9367 30H39.7648L38.3586 27.6445C38.2297 27.4258 38.1047 27.2402 37.9836 27.0879C37.8625 26.9316 37.7375 26.8047 37.6086 26.707C37.4836 26.6094 37.3469 26.5391 37.1984 26.4961C37.0539 26.4492 36.8898 26.4258 36.7062 26.4258H35.8977V30H34.9133V21.5977H37.4211C37.7883 21.5977 38.1262 21.6445 38.4348 21.7383C38.7473 21.8281 39.0168 21.9668 39.2434 22.1543C39.4738 22.3418 39.6535 22.5762 39.7824 22.8574C39.9113 23.1348 39.9758 23.4609 39.9758 23.8359C39.9758 24.1289 39.9309 24.3984 39.841 24.6445C39.7551 24.8867 39.6301 25.1035 39.466 25.2949C39.3059 25.4863 39.1105 25.6504 38.8801 25.7871C38.6535 25.9199 38.3977 26.0234 38.1125 26.0977V26.1211C38.2531 26.1836 38.3742 26.2559 38.4758 26.3379C38.5812 26.416 38.6809 26.5098 38.7746 26.6191C38.8684 26.7285 38.9602 26.8535 39.05 26.9941C39.1437 27.1309 39.2473 27.291 39.3605 27.4746L40.9367 30ZM35.8977 22.4883V25.5352H37.2336C37.4797 25.5352 37.7062 25.498 37.9133 25.4238C38.1242 25.3496 38.3059 25.2441 38.4582 25.1074C38.6105 24.9668 38.7297 24.7969 38.8156 24.5977C38.9016 24.3945 38.9445 24.168 38.9445 23.918C38.9445 23.4688 38.798 23.1191 38.5051 22.8691C38.216 22.6152 37.7961 22.4883 37.2453 22.4883H35.8977ZM44.0242 30.1406C43.1375 30.1406 42.4285 29.8613 41.8973 29.3027C41.3699 28.7402 41.1063 27.9961 41.1063 27.0703C41.1063 26.0625 41.3816 25.2754 41.9324 24.709C42.4832 24.1426 43.2273 23.8594 44.1648 23.8594C45.0594 23.8594 45.7566 24.1348 46.2566 24.6855C46.7605 25.2363 47.0125 26 47.0125 26.9766C47.0125 27.9336 46.741 28.7012 46.198 29.2793C45.659 29.8535 44.9344 30.1406 44.0242 30.1406ZM44.0945 24.668C43.4773 24.668 42.9891 24.8789 42.6297 25.3008C42.2703 25.7188 42.0906 26.2969 42.0906 27.0352C42.0906 27.7461 42.2723 28.3066 42.6355 28.7168C42.9988 29.127 43.4852 29.332 44.0945 29.332C44.7156 29.332 45.1922 29.1309 45.5242 28.7285C45.8602 28.3262 46.0281 27.7539 46.0281 27.0117C46.0281 26.2617 45.8602 25.6836 45.5242 25.2773C45.1922 24.8711 44.7156 24.668 44.0945 24.668ZM53.2992 30H52.3383V29.0508H52.3148C51.9164 29.7773 51.2992 30.1406 50.4633 30.1406C49.0336 30.1406 48.3187 29.2891 48.3187 27.5859V24H49.2738V27.4336C49.2738 28.6992 49.7582 29.332 50.727 29.332C51.1957 29.332 51.5805 29.1602 51.8812 28.8164C52.1859 28.4688 52.3383 28.0156 52.3383 27.457V24H53.2992V30ZM57.9277 29.9414C57.7012 30.0664 57.4023 30.1289 57.0312 30.1289C55.9805 30.1289 55.4551 29.543 55.4551 28.3711V24.8203H54.4238V24H55.4551V22.5352L56.416 22.2246V24H57.9277V24.8203H56.416V28.2012C56.416 28.6035 56.4844 28.8906 56.6211 29.0625C56.7578 29.2344 56.9844 29.3203 57.3008 29.3203C57.543 29.3203 57.752 29.2539 57.9277 29.1211V29.9414ZM59.6031 22.4766C59.4313 22.4766 59.2848 22.418 59.1637 22.3008C59.0426 22.1836 58.982 22.0352 58.982 21.8555C58.982 21.6758 59.0426 21.5273 59.1637 21.4102C59.2848 21.2891 59.4313 21.2285 59.6031 21.2285C59.7789 21.2285 59.9273 21.2891 60.0484 21.4102C60.1734 21.5273 60.2359 21.6758 60.2359 21.8555C60.2359 22.0273 60.1734 22.1738 60.0484 22.2949C59.9273 22.416 59.7789 22.4766 59.6031 22.4766ZM60.0719 30H59.1109V24H60.0719V30ZM66.8977 30H65.9367V26.5781C65.9367 25.3047 65.4719 24.668 64.5422 24.668C64.0617 24.668 63.6633 24.8496 63.3469 25.2129C63.0344 25.5723 62.8781 26.0273 62.8781 26.5781V30H61.9172V24H62.8781V24.9961H62.9016C63.3547 24.2383 64.0109 23.8594 64.8703 23.8594C65.5266 23.8594 66.0285 24.0723 66.3762 24.498C66.7238 24.9199 66.8977 25.5312 66.8977 26.332V30ZM73.7352 29.5195C73.7352 31.7227 72.6805 32.8242 70.5711 32.8242C69.8289 32.8242 69.1805 32.6836 68.6258 32.4023V31.4414C69.3016 31.8164 69.9461 32.0039 70.5594 32.0039C72.0359 32.0039 72.7742 31.2188 72.7742 29.6484V28.9922H72.7508C72.2937 29.7578 71.6062 30.1406 70.6883 30.1406C69.9422 30.1406 69.3406 29.875 68.8836 29.3438C68.4305 28.8086 68.2039 28.0918 68.2039 27.1934C68.2039 26.1738 68.448 25.3633 68.9363 24.7617C69.4285 24.1602 70.1004 23.8594 70.952 23.8594C71.7605 23.8594 72.3602 24.1836 72.7508 24.832H72.7742V24H73.7352V29.5195ZM72.7742 27.2871V26.4023C72.7742 25.9258 72.6121 25.5176 72.2879 25.1777C71.9676 24.8379 71.5672 24.668 71.0867 24.668C70.493 24.668 70.0281 24.8848 69.6922 25.3184C69.3562 25.748 69.1883 26.3516 69.1883 27.1289C69.1883 27.7969 69.3484 28.332 69.6687 28.7344C69.993 29.1328 70.4207 29.332 70.952 29.332C71.491 29.332 71.9285 29.1406 72.2645 28.7578C72.6043 28.375 72.7742 27.8848 72.7742 27.2871Z" fill="#7B83EB"/>
</svg>
